<svg width="112" height="22" viewBox="0 0 112 22" fill="none" xmlns="http://www.w3.org/2000/svg">
<g clip-path="url(#clip0_177_832)">
<path d="M72.2399 21.5361V18.1534H75.9265V21.5361H72.2399ZM60.585 12.5914H65.8919V12.2332C65.8919 11.6063 65.8014 11.062 65.6204 10.5981C65.4393 10.1342 65.161 9.7714 64.783 9.51419C64.4074 9.25699 63.9185 9.12839 63.3211 9.12839C62.7779 9.12839 62.3095 9.27766 61.9202 9.5762C61.531 9.87474 61.2209 10.2812 60.9946 10.791C60.7683 11.3008 60.619 11.8795 60.5465 12.5225L60.5873 12.5914H60.585ZM63.6311 21.8278C62.2348 21.8278 61.0173 21.5131 59.9785 20.8816C58.9398 20.2501 58.1341 19.382 57.5638 18.2729C56.9935 17.1637 56.7061 15.896 56.7061 14.4699V13.905C56.7061 12.4422 56.9799 11.1401 57.5299 9.99875C58.0775 8.85741 58.847 7.9595 59.8359 7.30731C60.8249 6.65282 61.9678 6.32672 63.2645 6.32672C64.5612 6.32672 65.7177 6.59541 66.6252 7.13507C67.5327 7.67244 68.2161 8.44405 68.6801 9.4476C69.1417 10.4511 69.3748 11.6568 69.3748 13.0645V15.1497H60.5443L60.5171 15.2324C60.5533 15.9511 60.7117 16.5873 60.9924 17.1453C61.273 17.701 61.669 18.142 62.176 18.4635C62.6829 18.785 63.3007 18.9457 64.0272 18.9457C64.7989 18.9457 65.5027 18.8447 66.1431 18.6426C66.7836 18.4405 67.3924 18.142 67.974 17.7447L69.0354 20.0779C68.4447 20.5739 67.6979 20.9919 66.7904 21.3271C65.8829 21.6624 64.8306 21.8301 63.6334 21.8301L63.6311 21.8278ZM49.1496 21.8278C48.0702 21.8278 47.0653 21.7244 46.1352 21.5177C45.2051 21.3111 44.2953 21.0056 43.4082 20.5992L43.3675 16.5138H45.9791L46.4951 18.6678C46.8481 18.8332 47.2215 18.9618 47.6108 19.0536C48 19.1455 48.4413 19.1914 48.9301 19.1914C49.8648 19.1914 50.5233 19.033 50.9103 18.7161C51.2951 18.3992 51.4874 17.9996 51.4874 17.5219C51.4874 17.0443 51.2837 16.663 50.8741 16.3278C50.4668 15.9925 49.6769 15.6985 48.5069 15.4505C46.7553 15.0739 45.4676 14.5044 44.6439 13.7466C43.8178 12.9864 43.4059 12.015 43.4059 10.8278C43.4059 9.99875 43.6164 9.2501 44.0396 8.57724C44.4605 7.90438 45.0942 7.36472 45.9383 6.95595C46.7825 6.54718 47.8393 6.3405 49.1089 6.3405C50.2246 6.3405 51.2294 6.45532 52.1233 6.68497C53.0173 6.91461 53.7709 7.20856 54.3887 7.5691L54.4566 11.5167H51.8586L51.4376 9.55553C51.1751 9.36263 50.8673 9.21336 50.512 9.10772C50.159 9.00209 49.7584 8.94927 49.3149 8.94927C48.5884 8.94927 48.0249 9.10543 47.6221 9.41774C47.2192 9.73006 47.0156 10.1273 47.0156 10.605C47.0156 10.8806 47.0835 11.1332 47.2192 11.3651C47.355 11.5948 47.6198 11.8083 48.0158 12.0081C48.4096 12.2056 48.989 12.3916 49.7494 12.5662C51.6187 12.9979 52.9675 13.5743 53.7958 14.2908C54.6263 15.0096 55.0405 15.9833 55.0405 17.2165C55.0405 18.5783 54.5539 19.6875 53.5785 20.544C52.6031 21.4006 51.1276 21.8278 49.1496 21.8278ZM35.9446 3.32756V0H39.7805V3.32756H35.9446ZM34.1092 21.5361V19.2718L36.0826 18.8585V9.29144L33.9463 8.87808V6.6H39.7827V18.8585L41.7562 19.2718V21.5361H34.1092ZM24.6721 18.9962C25.299 18.9962 25.8851 18.8493 26.4351 18.5553C26.9827 18.2614 27.3992 17.8871 27.6798 17.4369V15.0073H25.5706C24.6178 15.0073 23.9004 15.2301 23.4139 15.6779C22.9296 16.1234 22.6852 16.6516 22.6852 17.2578C22.6852 17.809 22.8571 18.2384 23.2011 18.5415C23.5451 18.8447 24.0362 18.9962 24.6699 18.9962H24.6721ZM23.7624 21.8278C22.2846 21.8278 21.1214 21.4351 20.2727 20.6474C19.424 19.8597 19.0009 18.7804 19.0009 17.4094C19.0009 16.0384 19.5644 14.858 20.6936 13.9785C21.8229 13.099 23.4523 12.6603 25.5842 12.6603H27.6798V11.4868C27.6798 10.7313 27.4603 10.1251 27.019 9.66346C26.5799 9.20417 25.9327 8.97223 25.0795 8.97223C24.6178 8.97223 24.2014 9.02964 23.8348 9.14447C23.4682 9.25929 23.1378 9.42234 22.8481 9.63361L22.5358 11.6361H19.8427L19.8156 7.85386C20.5601 7.39457 21.3771 7.02255 22.271 6.74238C23.1649 6.46221 24.1607 6.32213 25.2583 6.32213C27.1547 6.32213 28.6484 6.76994 29.7414 7.66785C30.8345 8.56576 31.3799 9.85177 31.3799 11.5259V17.8894C31.3799 18.0914 31.3822 18.2889 31.3867 18.4818C31.3912 18.6747 31.4071 18.863 31.4342 19.0468L32.9437 19.2672V21.5315H28.2501C28.1505 21.2468 28.0577 20.9551 27.9717 20.6543C27.8857 20.3557 27.8246 20.0526 27.7884 19.7495C27.3086 20.3672 26.7338 20.8655 26.0685 21.2468C25.4009 21.628 24.6337 21.8186 23.7624 21.8186V21.8278ZM5.83649 10.4787H9.15644C10.3808 10.4787 11.2883 10.2238 11.8767 9.71169C12.4673 9.20188 12.7615 8.45783 12.7615 7.48184C12.7615 6.50585 12.4719 5.76179 11.8902 5.18998C11.3109 4.62046 10.4396 4.3334 9.27864 4.3334H5.83649V10.4764V10.4787ZM12.8158 21.5361L9.25149 12.5616L12.6529 11.8566L15.7013 18.8837L17.3194 19.242V21.5338H12.8158V21.5361ZM0 21.5361V19.2718L2.13635 18.8585V4.12902L0 3.71566V1.43528H9.27864C10.7745 1.43528 12.06 1.66952 13.1349 2.14029C14.2099 2.60877 15.0314 3.28622 15.5972 4.17035C16.1629 5.05449 16.4481 6.11315 16.4481 7.34635C16.4481 8.57954 16.1675 9.56472 15.604 10.4672C15.0427 11.3697 14.2552 12.0747 13.2436 12.5868C12.232 13.0967 11.0597 13.3585 9.72673 13.3676L5.83649 13.3814V18.863L7.97284 19.2764V21.5407H0V21.5361Z" fill="#1E1E1E"/>
<path d="M100.298 13.843H105.37L103.061 7.06159L102.88 6.51274H102.803L102.609 7.08915L100.3 13.8453L100.298 13.843ZM93.6535 21.7244V19.5773L95.0091 19.3798L101.113 2.66159H104.609L110.661 19.3798L112.003 19.5773V21.7244H105.822V19.5773L107.151 19.3292L106.234 16.5276H99.4357L98.5192 19.3292L99.834 19.5773V21.7244H93.6535ZM85.2982 22C83.8453 22 82.5644 21.7405 81.46 21.2215C80.3557 20.7025 79.4934 19.947 78.8733 18.9572C78.2533 17.9674 77.9455 16.7687 77.9455 15.3633V5.21524L75.9336 4.82255V2.66159H83.481V4.82255L81.4555 5.21524V15.361C81.4555 16.2244 81.6117 16.9455 81.9262 17.5219C82.2408 18.0983 82.6844 18.5301 83.2615 18.8171C83.8385 19.1042 84.5175 19.2489 85.3005 19.2489C86.0835 19.2489 86.7919 19.1065 87.378 18.824C87.9619 18.5393 88.4122 18.1098 88.7268 17.5334C89.0414 16.957 89.1975 16.2336 89.1975 15.361V5.21524L87.1721 4.82255V2.66159H94.733V4.82255L92.7076 5.21524V15.361C92.7076 16.7756 92.3975 17.9766 91.7797 18.9687C91.1596 19.9585 90.2951 20.7117 89.1862 21.2261C88.0773 21.7405 86.7828 21.9977 85.3028 21.9977L85.2982 22Z" fill="#1E1E1E"/>
</g>
<defs>
<clipPath id="clip0_177_832">
<rect width="112" height="22" fill="white"/>
</clipPath>
</defs>
</svg>
